<svg width="364" height="628" viewBox="0 0 364 628" fill="none" xmlns="http://www.w3.org/2000/svg">
<path d="M199.923 33.0023C199.923 33.0023 213.601 0.0183825 215.69 0.528477C217.78 1.03857 208.281 20.2169 205.396 37.5593C203.618 36.6045 200.035 34.3562 199.923 33.0023Z" fill="#F0DA91"/>
<path d="M199.923 33.0023C199.923 33.0023 213.601 0.0183825 215.69 0.528477C217.78 1.03857 208.281 20.2169 205.396 37.5593" stroke="#36595C" stroke-linecap="round"/>
<path d="M310.489 253.012C296.891 209.39 326.094 199.297 330.55 201.156C330.55 201.156 311.253 180.252 334.4 162.071C327.147 155.084 192.388 93.7623 192.388 93.7623L252.84 285.548C271.138 248.443 302.085 251.576 310.489 253.012Z" fill="#F0DA91"/>
<g style="mix-blend-mode:multiply" opacity="0.45">
<path d="M310.489 253.012C296.891 209.39 326.094 199.297 330.55 201.156C330.55 201.156 311.253 180.252 334.4 162.071C327.147 155.084 192.388 93.7623 192.388 93.7623L252.84 285.548C271.138 248.443 302.085 251.576 310.489 253.012Z" fill="#36595C"/>
</g>
<path d="M271.857 337.613C272.891 280.089 301.281 279.857 304.61 283.875C304.61 283.875 293.983 251.144 319.488 238.816C315.238 227.551 216.056 99.9385 216.056 99.9385L212.094 353.113C238.962 316.256 264.968 332.503 271.857 337.613Z" fill="#F0DA91"/>
<path d="M149.031 409.421C146.473 432.218 144.846 487.396 156.465 524.326C157.019 526.085 155.096 527.753 153.428 526.967C148.056 524.434 139.156 520.707 132.286 520.168" stroke="#36595C" stroke-width="2" stroke-linecap="round"/>
<path d="M140.815 404.216C131.782 389.019 141.732 336.554 141.732 336.554H187.311C187.311 375.516 192.51 407.501 192.51 433.884C164.3 435.521 149.849 419.413 140.815 404.216Z" fill="#809594"/>
<g style="mix-blend-mode:darken" opacity="0.4">
<path d="M140.403 348.066L138.191 366.515C138.191 366.515 156.302 350.061 158.299 348.72C157.833 347.982 140.403 348.066 140.403 348.066Z" fill="#36595C"/>
<path d="M140.403 348.066L138.191 366.515C138.191 366.515 156.302 350.061 158.299 348.72C157.833 347.982 140.403 348.066 140.403 348.066Z" stroke="#36595C"/>
</g>
<g style="mix-blend-mode:darken" opacity="0.3">
<path d="M138.09 366.817C138.543 366.113 160.277 347.268 160.277 347.268L163.214 341.369L179.422 343.023L137.72 389.059C137.72 389.059 137.136 376.418 138.09 366.817Z" fill="#36595C"/>
<path d="M138.09 366.817C138.543 366.113 160.277 347.268 160.277 347.268L163.214 341.369L179.422 343.023L137.72 389.059C137.72 389.059 137.136 376.418 138.09 366.817Z" stroke="#36595C"/>
</g>
<g style="mix-blend-mode:darken" opacity="0.2">
<path d="M144.104 408.503C142.035 405.821 138.472 400.84 137.667 389.767C137.667 389.269 179.324 343.112 179.324 343.112L188.285 344.368C188.285 344.368 144.945 407.315 144.104 408.503Z" fill="#36595C"/>
<path d="M144.104 408.503C142.035 405.821 138.472 400.84 137.667 389.767C137.667 389.269 179.324 343.112 179.324 343.112L188.285 344.368C188.285 344.368 144.945 407.315 144.104 408.503Z" stroke="#36595C"/>
</g>
<g style="mix-blend-mode:darken" opacity="0.1">
<path d="M158.137 423.12C152.578 419.136 147.172 412.972 144.676 409.597L144.702 407.941L188.271 344.441L196.924 350.041C187.422 368.409 166.257 408.981 158.137 423.12Z" fill="#36595C"/>
<path d="M158.137 423.12C152.578 419.136 147.172 412.972 144.676 409.597L144.702 407.941L188.271 344.441L196.924 350.041C187.422 368.409 166.257 408.981 158.137 423.12Z" stroke="#36595C"/>
</g>
<g style="mix-blend-mode:darken" opacity="0.05">
<path d="M175.181 431.435C167.23 429.142 160.541 424.818 157.887 422.785L189.582 363.307L195.372 369.302C189.989 390.189 177.706 426.118 175.181 431.435Z" fill="#36595C"/>
<path d="M175.181 431.435C167.23 429.142 160.541 424.818 157.887 422.785L189.582 363.307L195.372 369.302C189.989 390.189 177.706 426.118 175.181 431.435Z" stroke="#36595C"/>
</g>
<path d="M181.64 66.1431C163.839 59.9526 149.244 70.1871 137.594 71.1315C129.499 71.1315 128.303 61.6891 130.602 55.5584C134.071 46.307 133.688 45.6427 148.483 42.9741C160.667 40.7765 167.528 35.9571 174.249 32.9868C180.97 30.0164 192.959 27.0247 200.215 27.793C208.78 28.6999 220.351 36.5816 220.351 50.9667C220.351 58.5485 218.945 77.503 218.945 86.1971L217.596 138.238C216.548 175.893 218.209 230.177 217.981 283.184C217.664 356.978 216.259 427.937 221.643 444.898C233.208 481.327 252.675 494.626 268.288 507.925C280.778 518.565 302.548 521.79 311.222 523.524C301.328 524.488 273.338 524.27 245.737 504.071C211.235 478.821 198.899 446.247 192.732 433.911C187.797 424.042 181.669 351.508 182.119 332.555C182.478 219.733 176.45 185.172 177.411 147.335C178.402 108.293 186.306 67.7658 181.64 66.1431Z" fill="#81A8A3"/>
<g style="mix-blend-mode:darken" opacity="0.7">
<path d="M178.86 42.665C178.782 43.3673 182.959 46.1776 187.526 44.3042" stroke="#1A2B2C" stroke-width="2" stroke-linecap="round"/>
</g>
<g style="mix-blend-mode:darken" opacity="0.3">
<path d="M268.13 329.497C264.551 315.974 256.994 298.077 253.414 283.758" stroke="#36595C" stroke-width="2" stroke-linecap="round"/>
</g>
<path opacity="0.3" d="M301.146 279.56C297.567 266.037 278.572 248.817 274.992 234.498" stroke="#36595C" stroke-width="2" stroke-linecap="round"/>
<path d="M35.7656 528.362H347.463" stroke="#36595C" stroke-width="1.5" stroke-linecap="round"/>
<path d="M298.107 526.588C296.626 525.106 298.286 523.443 299.894 522.448C301.043 519.921 302.296 517.877 304.317 519.531C306.338 521.185 317.436 522.816 321.723 524.424C313.676 527.401 299.225 527.706 298.107 526.588Z" fill="#F0DA91"/>
<g style="mix-blend-mode:darken">
<path d="M133.85 54.9306C134.204 53.8883 136.099 50.6245 137.115 51.3016C138.131 51.9789 137.906 52.3818 137.867 53.2719C137.819 54.3845 136.149 54.6076 135.326 57.3166C134.698 59.3863 133.848 63.6432 132.963 62.1695C131.727 60.1105 133.382 56.3048 133.85 54.9306Z" fill="#36595C"/>
</g>
<path d="M205.818 33.2796C205.818 33.2796 222.165 1.53356 224.205 2.21391C226.245 2.89425 215.2 21.2256 210.897 38.2717C209.204 37.1737 205.818 34.6382 205.818 33.2796Z" fill="#F0DA91"/>
<path d="M205.818 33.2796C205.818 33.2796 222.165 1.53356 224.205 2.21391C226.245 2.89425 215.2 21.2256 210.897 38.2717" stroke="#36595C" stroke-linecap="round"/>
<path d="M182.838 397.933C178.002 470.469 198.371 503.923 207.149 525.09C207.821 526.711 206.177 528.287 204.544 527.645C198.466 525.257 187.552 521.423 182.838 522.627" stroke="#36595C" stroke-width="2" stroke-linecap="round"/>
<path d="M149.831 324.229L159.632 115.08C159.632 115.08 17.275 108.084 11.2066 109.959C8.88475 112.885 0.275657 313.716 1.40546 319.108C9.60503 314.987 149.831 324.229 149.831 324.229Z" fill="#F3F3F3" stroke="#C7C7C7" stroke-width="1.5"/>
<path d="M159.525 332.942L169.326 123.793C169.326 123.793 26.9683 116.797 20.8999 118.672C18.5781 121.598 9.96902 322.429 11.0988 327.821C19.2984 323.7 159.525 332.942 159.525 332.942Z" fill="#F3F3F3" stroke="#C7C7C7" stroke-width="1.5"/>
<path d="M169.257 342.372L179.058 133.223C179.058 133.223 36.7008 126.226 30.6324 128.102C28.3105 131.028 19.7014 331.858 20.8312 337.25C29.0308 333.129 169.257 342.372 169.257 342.372Z" fill="#F3F3F3" stroke="#C7C7C7" stroke-width="1.5"/>
<path d="M122.69 127.709C123.416 121.034 130.058 112.31 137.373 112.31C145.149 112.31 170.869 114.364 184.253 114.252C187.328 114.226 190.012 116.741 189.92 119.814L183.143 345.627C183.06 348.396 180.741 350.57 177.973 350.474L36.3866 345.589C33.6268 345.494 31.4668 343.18 31.562 340.42L38.4349 141.22C38.5301 138.461 40.8445 136.3 43.6043 136.396L104.45 138.495C117.587 138.948 121.963 134.384 122.69 127.709Z" fill="#F0DA91"/>
<path d="M100.922 268.758L95.5052 256.247M100.922 268.758L83.8965 269.854M100.922 268.758L94.2803 278.625M100.922 268.758L85.7029 259.987M100.922 268.758C116.527 267.134 157.604 257.152 197.079 230.218" stroke="#36595C" stroke-width="2"/>
<path d="M122.064 591.245C120.624 591.245 119.331 590.871 118.184 590.125C117.064 589.378 116.171 588.311 115.504 586.925C114.837 585.511 114.504 583.831 114.504 581.885C114.504 579.725 114.864 577.898 115.584 576.405C116.331 574.911 117.317 573.778 118.544 573.005C119.771 572.231 121.117 571.845 122.584 571.845C123.277 571.845 123.957 571.965 124.624 572.205C125.317 572.418 125.984 572.778 126.624 573.285C127.264 573.765 127.864 574.431 128.424 575.285H128.824L128.504 576.285C127.544 575.138 126.624 574.311 125.744 573.805C124.864 573.298 123.891 573.045 122.824 573.045C121.704 573.045 120.651 573.351 119.664 573.965C118.677 574.578 117.891 575.538 117.304 576.845C116.717 578.151 116.424 579.805 116.424 581.805C116.424 583.645 116.691 585.178 117.224 586.405C117.757 587.631 118.477 588.551 119.384 589.165C120.317 589.778 121.357 590.085 122.504 590.085C123.651 590.085 124.691 589.805 125.624 589.245C126.584 588.658 127.517 587.738 128.424 586.485L128.784 587.565H128.384C127.824 588.391 127.211 589.085 126.544 589.645C125.877 590.178 125.171 590.578 124.424 590.845C123.677 591.111 122.891 591.245 122.064 591.245ZM128.144 591.005L128.104 587.405V587.325V575.525V575.285V562.725L124.744 562.525V561.765L129.544 560.925L129.984 561.205L129.864 567.565V589.725L133.304 590.005V590.765L128.144 591.005ZM137.298 590.765V590.005L141.258 589.605H141.738L146.058 590.005V590.765H137.298ZM140.458 590.765C140.511 590.151 140.538 589.351 140.538 588.365C140.565 587.351 140.578 586.311 140.578 585.245C140.605 584.151 140.618 583.191 140.618 582.365V580.525C140.618 579.671 140.605 578.885 140.578 578.165C140.578 577.418 140.565 576.698 140.538 576.005C140.538 575.311 140.525 574.631 140.498 573.965L137.138 573.765V573.045L141.898 572.005L142.258 572.285L142.378 577.645V577.685V582.365C142.378 583.191 142.378 584.151 142.378 585.245C142.405 586.311 142.418 587.351 142.418 588.365C142.445 589.351 142.471 590.151 142.498 590.765H140.458ZM142.258 579.205L141.818 577.645H142.258C142.631 576.471 143.138 575.458 143.778 574.605C144.445 573.725 145.178 573.045 145.978 572.565C146.805 572.085 147.645 571.845 148.498 571.845C149.138 571.845 149.685 571.965 150.138 572.205C150.618 572.418 150.938 572.711 151.098 573.085C151.071 573.591 150.911 573.978 150.618 574.245C150.351 574.485 149.991 574.605 149.538 574.605C149.165 574.605 148.805 574.511 148.458 574.325C148.138 574.138 147.791 573.898 147.418 573.605L146.578 572.885L148.098 572.845C146.871 573.085 145.751 573.738 144.738 574.805C143.751 575.845 142.925 577.311 142.258 579.205ZM159.089 591.245C157.702 591.245 156.555 590.858 155.649 590.085C154.742 589.311 154.289 588.178 154.289 586.685C154.289 585.831 154.475 585.058 154.849 584.365C155.222 583.645 155.835 583.005 156.689 582.445C157.569 581.885 158.715 581.378 160.129 580.925C160.769 580.711 161.422 580.511 162.089 580.325C162.755 580.138 163.435 579.965 164.129 579.805C164.822 579.618 165.515 579.445 166.209 579.285V580.045C165.222 580.285 164.222 580.551 163.209 580.845C162.222 581.138 161.302 581.445 160.449 581.765C159.382 582.138 158.529 582.578 157.889 583.085C157.275 583.565 156.822 584.085 156.529 584.645C156.262 585.178 156.129 585.751 156.129 586.365C156.129 587.511 156.462 588.391 157.129 589.005C157.795 589.591 158.662 589.885 159.729 589.885C160.369 589.885 160.982 589.778 161.569 589.565C162.182 589.325 162.835 588.938 163.529 588.405C164.249 587.871 165.075 587.125 166.009 586.165L166.169 587.565H165.489C164.742 588.418 164.035 589.125 163.369 589.685C162.702 590.218 162.022 590.605 161.329 590.845C160.662 591.111 159.915 591.245 159.089 591.245ZM168.249 591.205C167.315 591.205 166.609 590.898 166.129 590.285C165.649 589.645 165.395 588.751 165.369 587.605V587.485V578.125C165.369 576.738 165.209 575.658 164.889 574.885C164.569 574.111 164.089 573.565 163.449 573.245C162.835 572.925 162.049 572.765 161.089 572.765C160.342 572.765 159.635 572.885 158.969 573.125C158.329 573.338 157.649 573.685 156.929 574.165L158.009 573.205L157.249 576.245C157.142 576.618 156.982 576.898 156.769 577.085C156.582 577.271 156.315 577.365 155.969 577.365C155.649 577.365 155.395 577.271 155.209 577.085C155.022 576.898 154.902 576.631 154.849 576.285C155.249 574.818 156.049 573.711 157.249 572.965C158.449 572.218 159.849 571.845 161.449 571.845C162.729 571.845 163.782 572.058 164.609 572.485C165.462 572.885 166.089 573.538 166.489 574.445C166.915 575.325 167.129 576.458 167.129 577.845V587.325C167.129 588.365 167.262 589.085 167.529 589.485C167.822 589.885 168.235 590.085 168.769 590.085C169.089 590.085 169.382 590.018 169.649 589.885C169.915 589.751 170.195 589.538 170.489 589.245L170.929 589.725C170.635 590.178 170.249 590.538 169.769 590.805C169.289 591.071 168.782 591.205 168.249 591.205ZM182.91 591.245C181.257 591.245 179.79 590.871 178.51 590.125C177.257 589.378 176.27 588.298 175.55 586.885C174.83 585.445 174.47 583.711 174.47 581.685C174.47 579.578 174.884 577.791 175.71 576.325C176.564 574.858 177.644 573.751 178.95 573.005C180.284 572.231 181.697 571.845 183.19 571.845C184.204 571.845 185.124 572.018 185.95 572.365C186.804 572.711 187.524 573.231 188.11 573.925C188.724 574.591 189.164 575.391 189.43 576.325C189.377 576.671 189.257 576.925 189.07 577.085C188.884 577.245 188.63 577.325 188.31 577.325C187.937 577.325 187.644 577.231 187.43 577.045C187.217 576.858 187.07 576.578 186.99 576.205L186.03 572.965L187.23 574.245C186.537 573.685 185.87 573.298 185.23 573.085C184.617 572.871 183.937 572.765 183.19 572.765C181.91 572.765 180.75 573.125 179.71 573.845C178.697 574.538 177.884 575.538 177.27 576.845C176.684 578.151 176.39 579.685 176.39 581.445C176.39 583.125 176.67 584.605 177.23 585.885C177.817 587.138 178.63 588.111 179.67 588.805C180.71 589.498 181.91 589.845 183.27 589.845C184.017 589.845 184.724 589.751 185.39 589.565C186.084 589.378 186.737 589.085 187.35 588.685C187.964 588.285 188.524 587.791 189.03 587.205L189.51 587.605C189.03 588.378 188.457 589.045 187.79 589.605C187.124 590.138 186.39 590.538 185.59 590.805C184.79 591.098 183.897 591.245 182.91 591.245ZM202.586 591.245C201.199 591.245 199.866 590.911 198.586 590.245C197.306 589.551 196.253 588.498 195.426 587.085C194.626 585.645 194.226 583.831 194.226 581.645C194.226 579.458 194.626 577.645 195.426 576.205C196.253 574.738 197.306 573.645 198.586 572.925C199.866 572.205 201.199 571.845 202.586 571.845C203.999 571.845 205.346 572.191 206.626 572.885C207.906 573.578 208.946 574.645 209.746 576.085C210.573 577.525 210.986 579.338 210.986 581.525C210.986 583.711 210.573 585.525 209.746 586.965C208.946 588.405 207.906 589.485 206.626 590.205C205.346 590.898 203.999 591.245 202.586 591.245ZM202.586 590.365C203.866 590.365 204.986 590.031 205.946 589.365C206.906 588.671 207.653 587.671 208.186 586.365C208.746 585.031 209.026 583.418 209.026 581.525C209.026 579.631 208.746 578.031 208.186 576.725C207.653 575.418 206.906 574.431 205.946 573.765C204.986 573.098 203.866 572.765 202.586 572.765C201.359 572.765 200.253 573.111 199.266 573.805C198.306 574.471 197.546 575.471 196.986 576.805C196.453 578.138 196.186 579.751 196.186 581.645C196.186 583.538 196.453 585.138 196.986 586.445C197.546 587.725 198.306 588.698 199.266 589.365C200.253 590.031 201.359 590.365 202.586 590.365ZM215.614 590.765V590.005L219.534 589.605H220.014L223.774 590.005V590.765H215.614ZM218.774 590.765C218.827 590.151 218.854 589.351 218.854 588.365C218.88 587.351 218.894 586.311 218.894 585.245C218.92 584.151 218.934 583.191 218.934 582.365V580.525C218.934 579.671 218.92 578.885 218.894 578.165C218.894 577.418 218.88 576.698 218.854 576.005C218.854 575.311 218.84 574.631 218.814 573.965L215.454 573.765V573.045L220.214 572.005L220.574 572.285L220.694 576.445V576.485V582.365C220.694 583.191 220.694 584.151 220.694 585.245C220.72 586.311 220.734 587.351 220.734 588.365C220.76 589.351 220.787 590.151 220.814 590.765H218.774ZM227.734 590.765V590.005L231.654 589.605H232.134L235.814 590.005V590.765H227.734ZM230.894 590.765C230.92 590.151 230.934 589.351 230.934 588.365C230.96 587.378 230.974 586.351 230.974 585.285C231 584.191 231.014 583.218 231.014 582.365V578.525C231.014 576.578 230.694 575.218 230.054 574.445C229.44 573.671 228.534 573.285 227.334 573.285C226.774 573.285 226.12 573.391 225.374 573.605C224.654 573.818 223.867 574.218 223.014 574.805C222.187 575.365 221.307 576.165 220.374 577.205L220.054 576.405H220.294C221.12 575.365 221.96 574.511 222.814 573.845C223.694 573.178 224.574 572.685 225.454 572.365C226.334 572.018 227.187 571.845 228.014 571.845C229.56 571.845 230.747 572.338 231.574 573.325C232.4 574.311 232.814 576.031 232.814 578.485V582.365C232.814 583.218 232.814 584.191 232.814 585.285C232.84 586.351 232.854 587.378 232.854 588.365C232.88 589.351 232.907 590.151 232.934 590.765H230.894Z" fill="#1A2B2C"/>
</svg>
