<svg width="364" height="628" viewBox="0 0 364 628" fill="none" xmlns="http://www.w3.org/2000/svg">
<path d="M199.923 33.0023C199.923 33.0023 213.601 0.0183825 215.69 0.528477C217.78 1.03857 208.281 20.2169 205.396 37.5593C203.618 36.6045 200.035 34.3562 199.923 33.0023Z" fill="#F0DA91"/>
<path d="M199.923 33.0023C199.923 33.0023 213.601 0.0183825 215.69 0.528477C217.78 1.03857 208.281 20.2169 205.396 37.5593" stroke="#36595C" stroke-linecap="round"/>
<path d="M310.489 253.012C296.891 209.39 326.094 199.297 330.55 201.156C330.55 201.156 311.253 180.252 334.4 162.071C327.147 155.084 192.388 93.7623 192.388 93.7623L252.84 285.548C271.138 248.443 302.085 251.576 310.489 253.012Z" fill="#F0DA91"/>
<g style="mix-blend-mode:multiply" opacity="0.45">
<path d="M310.489 253.012C296.891 209.39 326.094 199.297 330.55 201.156C330.55 201.156 311.253 180.252 334.4 162.071C327.147 155.084 192.388 93.7623 192.388 93.7623L252.84 285.548C271.138 248.443 302.085 251.576 310.489 253.012Z" fill="#36595C"/>
</g>
<path d="M271.857 337.613C272.891 280.089 301.281 279.857 304.61 283.875C304.61 283.875 293.983 251.144 319.488 238.816C315.238 227.551 216.056 99.9385 216.056 99.9385L212.094 353.113C238.962 316.256 264.968 332.503 271.857 337.613Z" fill="#F0DA91"/>
<path d="M149.031 409.421C146.473 432.218 144.846 487.396 156.465 524.326C157.019 526.085 155.096 527.753 153.428 526.967C148.056 524.434 139.156 520.707 132.286 520.168" stroke="#36595C" stroke-width="2" stroke-linecap="round"/>
<path d="M140.815 404.216C131.782 389.019 141.732 336.554 141.732 336.554H187.311C187.311 375.516 192.51 407.501 192.51 433.884C164.3 435.521 149.849 419.413 140.815 404.216Z" fill="#809594"/>
<g style="mix-blend-mode:darken" opacity="0.4">
<path d="M140.403 348.066L138.191 366.515C138.191 366.515 156.302 350.061 158.299 348.72C157.833 347.982 140.403 348.066 140.403 348.066Z" fill="#36595C"/>
<path d="M140.403 348.066L138.191 366.515C138.191 366.515 156.302 350.061 158.299 348.72C157.833 347.982 140.403 348.066 140.403 348.066Z" stroke="#36595C"/>
</g>
<g style="mix-blend-mode:darken" opacity="0.3">
<path d="M138.09 366.817C138.543 366.113 160.277 347.268 160.277 347.268L163.214 341.369L179.422 343.023L137.72 389.059C137.72 389.059 137.136 376.418 138.09 366.817Z" fill="#36595C"/>
<path d="M138.09 366.817C138.543 366.113 160.277 347.268 160.277 347.268L163.214 341.369L179.422 343.023L137.72 389.059C137.72 389.059 137.136 376.418 138.09 366.817Z" stroke="#36595C"/>
</g>
<g style="mix-blend-mode:darken" opacity="0.2">
<path d="M144.104 408.503C142.035 405.821 138.472 400.84 137.667 389.767C137.667 389.269 179.324 343.112 179.324 343.112L188.285 344.368C188.285 344.368 144.945 407.315 144.104 408.503Z" fill="#36595C"/>
<path d="M144.104 408.503C142.035 405.821 138.472 400.84 137.667 389.767C137.667 389.269 179.324 343.112 179.324 343.112L188.285 344.368C188.285 344.368 144.945 407.315 144.104 408.503Z" stroke="#36595C"/>
</g>
<g style="mix-blend-mode:darken" opacity="0.1">
<path d="M158.137 423.12C152.578 419.136 147.172 412.972 144.676 409.597L144.702 407.941L188.271 344.441L196.924 350.041C187.422 368.409 166.257 408.981 158.137 423.12Z" fill="#36595C"/>
<path d="M158.137 423.12C152.578 419.136 147.172 412.972 144.676 409.597L144.702 407.941L188.271 344.441L196.924 350.041C187.422 368.409 166.257 408.981 158.137 423.12Z" stroke="#36595C"/>
</g>
<g style="mix-blend-mode:darken" opacity="0.05">
<path d="M175.181 431.435C167.23 429.142 160.541 424.818 157.887 422.785L189.582 363.307L195.372 369.302C189.989 390.189 177.706 426.118 175.181 431.435Z" fill="#36595C"/>
<path d="M175.181 431.435C167.23 429.142 160.541 424.818 157.887 422.785L189.582 363.307L195.372 369.302C189.989 390.189 177.706 426.118 175.181 431.435Z" stroke="#36595C"/>
</g>
<path d="M181.64 66.1431C163.839 59.9526 149.244 70.1871 137.594 71.1315C129.499 71.1315 128.303 61.6891 130.602 55.5584C134.071 46.307 133.688 45.6427 148.483 42.9741C160.667 40.7765 167.528 35.9571 174.249 32.9868C180.97 30.0164 192.959 27.0247 200.215 27.793C208.78 28.6999 220.351 36.5816 220.351 50.9667C220.351 58.5485 218.945 77.503 218.945 86.1971L217.596 138.238C216.548 175.893 218.209 230.177 217.981 283.184C217.664 356.978 216.259 427.937 221.643 444.898C233.208 481.327 252.675 494.626 268.288 507.925C280.778 518.565 302.548 521.79 311.222 523.524C301.328 524.488 273.338 524.27 245.737 504.071C211.235 478.821 198.899 446.247 192.732 433.911C187.797 424.042 181.669 351.508 182.119 332.555C182.478 219.733 176.45 185.172 177.411 147.335C178.402 108.293 186.306 67.7658 181.64 66.1431Z" fill="#81A8A3"/>
<g style="mix-blend-mode:darken" opacity="0.7">
<path d="M178.86 42.665C178.782 43.3673 182.959 46.1776 187.526 44.3042" stroke="#1A2B2C" stroke-width="2" stroke-linecap="round"/>
</g>
<path d="M135 69.5C139 72 151 64.5 164 63" stroke="#36595C" stroke-width="1.3" stroke-linecap="round"/>
<g style="mix-blend-mode:darken" opacity="0.3">
<path d="M268.13 329.497C264.551 315.974 256.994 298.077 253.414 283.758" stroke="#36595C" stroke-width="2" stroke-linecap="round"/>
</g>
<path opacity="0.3" d="M301.146 279.56C297.567 266.037 278.572 248.817 274.992 234.498" stroke="#36595C" stroke-width="2" stroke-linecap="round"/>
<path d="M35.7656 528.362H347.463" stroke="#36595C" stroke-width="1.5" stroke-linecap="round"/>
<path d="M298.107 526.588C296.626 525.106 298.286 523.443 299.894 522.448C301.043 519.921 302.296 517.877 304.317 519.531C306.338 521.185 317.436 522.816 321.723 524.424C313.676 527.401 299.225 527.706 298.107 526.588Z" fill="#F0DA91"/>
<g style="mix-blend-mode:darken">
<path d="M133.85 54.9306C134.204 53.8883 136.099 50.6245 137.115 51.3016C138.131 51.9789 137.906 52.3818 137.867 53.2719C137.819 54.3845 136.149 54.6076 135.326 57.3166C134.698 59.3863 133.848 63.6432 132.963 62.1695C131.727 60.1105 133.382 56.3048 133.85 54.9306Z" fill="#36595C"/>
</g>
<path d="M205.818 33.2796C205.818 33.2796 222.165 1.53356 224.205 2.21391C226.245 2.89425 215.2 21.2256 210.897 38.2717C209.204 37.1737 205.818 34.6382 205.818 33.2796Z" fill="#F0DA91"/>
<path d="M205.818 33.2796C205.818 33.2796 222.165 1.53356 224.205 2.21391C226.245 2.89425 215.2 21.2256 210.897 38.2717" stroke="#36595C" stroke-linecap="round"/>
<path d="M182.838 397.933C178.002 470.469 198.371 503.923 207.149 525.09C207.821 526.711 206.177 528.287 204.544 527.645C198.466 525.257 187.552 521.423 182.838 522.627" stroke="#36595C" stroke-width="2" stroke-linecap="round"/>
<path d="M149.831 324.229L159.632 115.08C159.632 115.08 17.275 108.084 11.2066 109.959C8.88475 112.885 0.275657 313.716 1.40546 319.108C9.60503 314.987 149.831 324.229 149.831 324.229Z" fill="#F3F3F3" stroke="#C7C7C7" stroke-width="1.5"/>
<path d="M159.525 332.942L169.326 123.793C169.326 123.793 26.9683 116.797 20.8999 118.672C18.5781 121.598 9.96902 322.429 11.0988 327.821C19.2984 323.7 159.525 332.942 159.525 332.942Z" fill="#F3F3F3" stroke="#C7C7C7" stroke-width="1.5"/>
<path d="M169.257 342.372L179.058 133.223C179.058 133.223 36.7008 126.226 30.6324 128.102C28.3105 131.028 19.7014 331.858 20.8312 337.25C29.0308 333.129 169.257 342.372 169.257 342.372Z" fill="#F3F3F3" stroke="#C7C7C7" stroke-width="1.5"/>
<path d="M122.69 127.709C123.416 121.034 130.058 112.31 137.373 112.31C145.149 112.31 170.869 114.364 184.253 114.252C187.328 114.226 190.012 116.741 189.92 119.814L183.143 345.627C183.06 348.396 180.741 350.57 177.973 350.474L36.3866 345.589C33.6268 345.494 31.4668 343.18 31.562 340.42L38.4349 141.22C38.5301 138.461 40.8445 136.3 43.6043 136.396L104.45 138.495C117.587 138.948 121.963 134.384 122.69 127.709Z" fill="#F0DA91"/>
<path d="M100.922 268.758L95.5052 256.247M100.922 268.758L83.8965 269.854M100.922 268.758L94.2803 278.625M100.922 268.758L85.7029 259.987M100.922 268.758C116.527 267.134 157.604 257.152 197.079 230.218" stroke="#36595C" stroke-width="2"/>
<path d="M128.064 591.245C126.624 591.245 125.331 590.871 124.184 590.125C123.064 589.378 122.171 588.311 121.504 586.925C120.837 585.511 120.504 583.831 120.504 581.885C120.504 579.725 120.864 577.898 121.584 576.405C122.331 574.911 123.317 573.778 124.544 573.005C125.771 572.231 127.117 571.845 128.584 571.845C129.277 571.845 129.957 571.965 130.624 572.205C131.317 572.418 131.984 572.778 132.624 573.285C133.264 573.765 133.864 574.431 134.424 575.285H134.824L134.504 576.285C133.544 575.138 132.624 574.311 131.744 573.805C130.864 573.298 129.891 573.045 128.824 573.045C127.704 573.045 126.651 573.351 125.664 573.965C124.677 574.578 123.891 575.538 123.304 576.845C122.717 578.151 122.424 579.805 122.424 581.805C122.424 583.645 122.691 585.178 123.224 586.405C123.757 587.631 124.477 588.551 125.384 589.165C126.317 589.778 127.357 590.085 128.504 590.085C129.651 590.085 130.691 589.805 131.624 589.245C132.584 588.658 133.517 587.738 134.424 586.485L134.784 587.565H134.384C133.824 588.391 133.211 589.085 132.544 589.645C131.877 590.178 131.171 590.578 130.424 590.845C129.677 591.111 128.891 591.245 128.064 591.245ZM134.144 591.005L134.104 587.405V587.325V575.525V575.285V562.725L130.744 562.525V561.765L135.544 560.925L135.984 561.205L135.864 567.565V589.725L139.304 590.005V590.765L134.144 591.005ZM143.298 590.765V590.005L147.258 589.605H147.738L152.058 590.005V590.765H143.298ZM146.458 590.765C146.511 590.151 146.538 589.351 146.538 588.365C146.565 587.351 146.578 586.311 146.578 585.245C146.605 584.151 146.618 583.191 146.618 582.365V580.525C146.618 579.671 146.605 578.885 146.578 578.165C146.578 577.418 146.565 576.698 146.538 576.005C146.538 575.311 146.525 574.631 146.498 573.965L143.138 573.765V573.045L147.898 572.005L148.258 572.285L148.378 577.645V577.685V582.365C148.378 583.191 148.378 584.151 148.378 585.245C148.405 586.311 148.418 587.351 148.418 588.365C148.445 589.351 148.471 590.151 148.498 590.765H146.458ZM148.258 579.205L147.818 577.645H148.258C148.631 576.471 149.138 575.458 149.778 574.605C150.445 573.725 151.178 573.045 151.978 572.565C152.805 572.085 153.645 571.845 154.498 571.845C155.138 571.845 155.685 571.965 156.138 572.205C156.618 572.418 156.938 572.711 157.098 573.085C157.071 573.591 156.911 573.978 156.618 574.245C156.351 574.485 155.991 574.605 155.538 574.605C155.165 574.605 154.805 574.511 154.458 574.325C154.138 574.138 153.791 573.898 153.418 573.605L152.578 572.885L154.098 572.845C152.871 573.085 151.751 573.738 150.738 574.805C149.751 575.845 148.925 577.311 148.258 579.205ZM165.089 591.245C163.702 591.245 162.555 590.858 161.649 590.085C160.742 589.311 160.289 588.178 160.289 586.685C160.289 585.831 160.475 585.058 160.849 584.365C161.222 583.645 161.835 583.005 162.689 582.445C163.569 581.885 164.715 581.378 166.129 580.925C166.769 580.711 167.422 580.511 168.089 580.325C168.755 580.138 169.435 579.965 170.129 579.805C170.822 579.618 171.515 579.445 172.209 579.285V580.045C171.222 580.285 170.222 580.551 169.209 580.845C168.222 581.138 167.302 581.445 166.449 581.765C165.382 582.138 164.529 582.578 163.889 583.085C163.275 583.565 162.822 584.085 162.529 584.645C162.262 585.178 162.129 585.751 162.129 586.365C162.129 587.511 162.462 588.391 163.129 589.005C163.795 589.591 164.662 589.885 165.729 589.885C166.369 589.885 166.982 589.778 167.569 589.565C168.182 589.325 168.835 588.938 169.529 588.405C170.249 587.871 171.075 587.125 172.009 586.165L172.169 587.565H171.489C170.742 588.418 170.035 589.125 169.369 589.685C168.702 590.218 168.022 590.605 167.329 590.845C166.662 591.111 165.915 591.245 165.089 591.245ZM174.249 591.205C173.315 591.205 172.609 590.898 172.129 590.285C171.649 589.645 171.395 588.751 171.369 587.605V587.485V578.125C171.369 576.738 171.209 575.658 170.889 574.885C170.569 574.111 170.089 573.565 169.449 573.245C168.835 572.925 168.049 572.765 167.089 572.765C166.342 572.765 165.635 572.885 164.969 573.125C164.329 573.338 163.649 573.685 162.929 574.165L164.009 573.205L163.249 576.245C163.142 576.618 162.982 576.898 162.769 577.085C162.582 577.271 162.315 577.365 161.969 577.365C161.649 577.365 161.395 577.271 161.209 577.085C161.022 576.898 160.902 576.631 160.849 576.285C161.249 574.818 162.049 573.711 163.249 572.965C164.449 572.218 165.849 571.845 167.449 571.845C168.729 571.845 169.782 572.058 170.609 572.485C171.462 572.885 172.089 573.538 172.489 574.445C172.915 575.325 173.129 576.458 173.129 577.845V587.325C173.129 588.365 173.262 589.085 173.529 589.485C173.822 589.885 174.235 590.085 174.769 590.085C175.089 590.085 175.382 590.018 175.649 589.885C175.915 589.751 176.195 589.538 176.489 589.245L176.929 589.725C176.635 590.178 176.249 590.538 175.769 590.805C175.289 591.071 174.782 591.205 174.249 591.205ZM188.91 591.245C187.257 591.245 185.79 590.871 184.51 590.125C183.257 589.378 182.27 588.298 181.55 586.885C180.83 585.445 180.47 583.711 180.47 581.685C180.47 579.578 180.884 577.791 181.71 576.325C182.564 574.858 183.644 573.751 184.95 573.005C186.284 572.231 187.697 571.845 189.19 571.845C190.204 571.845 191.124 572.018 191.95 572.365C192.804 572.711 193.524 573.231 194.11 573.925C194.724 574.591 195.164 575.391 195.43 576.325C195.377 576.671 195.257 576.925 195.07 577.085C194.884 577.245 194.63 577.325 194.31 577.325C193.937 577.325 193.644 577.231 193.43 577.045C193.217 576.858 193.07 576.578 192.99 576.205L192.03 572.965L193.23 574.245C192.537 573.685 191.87 573.298 191.23 573.085C190.617 572.871 189.937 572.765 189.19 572.765C187.91 572.765 186.75 573.125 185.71 573.845C184.697 574.538 183.884 575.538 183.27 576.845C182.684 578.151 182.39 579.685 182.39 581.445C182.39 583.125 182.67 584.605 183.23 585.885C183.817 587.138 184.63 588.111 185.67 588.805C186.71 589.498 187.91 589.845 189.27 589.845C190.017 589.845 190.724 589.751 191.39 589.565C192.084 589.378 192.737 589.085 193.35 588.685C193.964 588.285 194.524 587.791 195.03 587.205L195.51 587.605C195.03 588.378 194.457 589.045 193.79 589.605C193.124 590.138 192.39 590.538 191.59 590.805C190.79 591.098 189.897 591.245 188.91 591.245ZM208.586 591.245C207.199 591.245 205.866 590.911 204.586 590.245C203.306 589.551 202.253 588.498 201.426 587.085C200.626 585.645 200.226 583.831 200.226 581.645C200.226 579.458 200.626 577.645 201.426 576.205C202.253 574.738 203.306 573.645 204.586 572.925C205.866 572.205 207.199 571.845 208.586 571.845C209.999 571.845 211.346 572.191 212.626 572.885C213.906 573.578 214.946 574.645 215.746 576.085C216.573 577.525 216.986 579.338 216.986 581.525C216.986 583.711 216.573 585.525 215.746 586.965C214.946 588.405 213.906 589.485 212.626 590.205C211.346 590.898 209.999 591.245 208.586 591.245ZM208.586 590.365C209.866 590.365 210.986 590.031 211.946 589.365C212.906 588.671 213.653 587.671 214.186 586.365C214.746 585.031 215.026 583.418 215.026 581.525C215.026 579.631 214.746 578.031 214.186 576.725C213.653 575.418 212.906 574.431 211.946 573.765C210.986 573.098 209.866 572.765 208.586 572.765C207.359 572.765 206.253 573.111 205.266 573.805C204.306 574.471 203.546 575.471 202.986 576.805C202.453 578.138 202.186 579.751 202.186 581.645C202.186 583.538 202.453 585.138 202.986 586.445C203.546 587.725 204.306 588.698 205.266 589.365C206.253 590.031 207.359 590.365 208.586 590.365ZM221.614 590.765V590.005L225.534 589.605H226.014L229.774 590.005V590.765H221.614ZM224.774 590.765C224.827 590.151 224.854 589.351 224.854 588.365C224.88 587.351 224.894 586.311 224.894 585.245C224.92 584.151 224.934 583.191 224.934 582.365V580.525C224.934 579.671 224.92 578.885 224.894 578.165C224.894 577.418 224.88 576.698 224.854 576.005C224.854 575.311 224.84 574.631 224.814 573.965L221.454 573.765V573.045L226.214 572.005L226.574 572.285L226.694 576.445V576.485V582.365C226.694 583.191 226.694 584.151 226.694 585.245C226.72 586.311 226.734 587.351 226.734 588.365C226.76 589.351 226.787 590.151 226.814 590.765H224.774ZM233.734 590.765V590.005L237.654 589.605H238.134L241.814 590.005V590.765H233.734ZM236.894 590.765C236.92 590.151 236.934 589.351 236.934 588.365C236.96 587.378 236.974 586.351 236.974 585.285C237 584.191 237.014 583.218 237.014 582.365V578.525C237.014 576.578 236.694 575.218 236.054 574.445C235.44 573.671 234.534 573.285 233.334 573.285C232.774 573.285 232.12 573.391 231.374 573.605C230.654 573.818 229.867 574.218 229.014 574.805C228.187 575.365 227.307 576.165 226.374 577.205L226.054 576.405H226.294C227.12 575.365 227.96 574.511 228.814 573.845C229.694 573.178 230.574 572.685 231.454 572.365C232.334 572.018 233.187 571.845 234.014 571.845C235.56 571.845 236.747 572.338 237.574 573.325C238.4 574.311 238.814 576.031 238.814 578.485V582.365C238.814 583.218 238.814 584.191 238.814 585.285C238.84 586.351 238.854 587.378 238.854 588.365C238.88 589.351 238.907 590.151 238.934 590.765H236.894Z" fill="#1A2B2C"/>
</svg>
