<svg width="547" height="696" viewBox="0 0 547 696" fill="none" xmlns="http://www.w3.org/2000/svg">
<circle cx="273.521" cy="423.12" r="272.674" fill="#F2F6F5"/>
<path d="M286.923 33.0023C286.923 33.0023 300.601 0.0183825 302.69 0.528477C304.78 1.03857 295.281 20.2169 292.396 37.5593C290.618 36.6045 287.035 34.3562 286.923 33.0023Z" fill="#F0DA91"/>
<path d="M286.923 33.0023C286.923 33.0023 300.601 0.0183825 302.69 0.528477C304.78 1.03857 295.281 20.2169 292.396 37.5593" stroke="#36595C" stroke-linecap="round"/>
<path d="M397.489 253.012C383.891 209.39 413.094 199.297 417.55 201.156C417.55 201.156 398.253 180.252 421.4 162.071C414.147 155.084 279.388 93.7623 279.388 93.7623L339.84 285.548C358.138 248.443 389.085 251.576 397.489 253.012Z" fill="#F0DA91"/>
<g style="mix-blend-mode:multiply" opacity="0.45">
<path d="M397.489 253.012C383.891 209.39 413.094 199.297 417.55 201.156C417.55 201.156 398.253 180.252 421.4 162.071C414.147 155.084 279.388 93.7623 279.388 93.7623L339.84 285.548C358.138 248.443 389.085 251.576 397.489 253.012Z" fill="#36595C"/>
</g>
<path d="M358.857 337.613C359.891 280.089 388.281 279.857 391.61 283.875C391.61 283.875 380.983 251.144 406.488 238.816C402.238 227.551 303.056 99.9385 303.056 99.9385L299.094 353.113C325.962 316.256 351.968 332.503 358.857 337.613Z" fill="#F0DA91"/>
<path d="M236.031 409.421C233.473 432.218 231.846 487.396 243.465 524.326C244.019 526.085 242.096 527.753 240.428 526.967C235.056 524.434 226.156 520.707 219.286 520.168" stroke="#36595C" stroke-width="2" stroke-linecap="round"/>
<path d="M227.815 404.216C218.782 389.019 228.732 336.554 228.732 336.554H274.311C274.311 375.516 279.51 407.501 279.51 433.884C251.3 435.521 236.849 419.413 227.815 404.216Z" fill="#809594"/>
<g style="mix-blend-mode:darken" opacity="0.4">
<path d="M227.403 348.066L225.191 366.515C225.191 366.515 243.302 350.061 245.299 348.72C244.833 347.982 227.403 348.066 227.403 348.066Z" fill="#36595C"/>
<path d="M227.403 348.066L225.191 366.515C225.191 366.515 243.302 350.061 245.299 348.72C244.833 347.982 227.403 348.066 227.403 348.066Z" stroke="#36595C"/>
</g>
<g style="mix-blend-mode:darken" opacity="0.3">
<path d="M225.09 366.817C225.543 366.113 247.277 347.268 247.277 347.268L250.214 341.369L266.422 343.023L224.72 389.059C224.72 389.059 224.136 376.418 225.09 366.817Z" fill="#36595C"/>
<path d="M225.09 366.817C225.543 366.113 247.277 347.268 247.277 347.268L250.214 341.369L266.422 343.023L224.72 389.059C224.72 389.059 224.136 376.418 225.09 366.817Z" stroke="#36595C"/>
</g>
<g style="mix-blend-mode:darken" opacity="0.2">
<path d="M231.104 408.503C229.035 405.821 225.472 400.84 224.667 389.767C224.667 389.269 266.324 343.112 266.324 343.112L275.285 344.368C275.285 344.368 231.945 407.315 231.104 408.503Z" fill="#36595C"/>
<path d="M231.104 408.503C229.035 405.821 225.472 400.84 224.667 389.767C224.667 389.269 266.324 343.112 266.324 343.112L275.285 344.368C275.285 344.368 231.945 407.315 231.104 408.503Z" stroke="#36595C"/>
</g>
<g style="mix-blend-mode:darken" opacity="0.1">
<path d="M245.137 423.12C239.578 419.136 234.172 412.972 231.676 409.597L231.702 407.941L275.271 344.441L283.924 350.041C274.422 368.409 253.257 408.981 245.137 423.12Z" fill="#36595C"/>
<path d="M245.137 423.12C239.578 419.136 234.172 412.972 231.676 409.597L231.702 407.941L275.271 344.441L283.924 350.041C274.422 368.409 253.257 408.981 245.137 423.12Z" stroke="#36595C"/>
</g>
<g style="mix-blend-mode:darken" opacity="0.05">
<path d="M262.181 431.435C254.23 429.142 247.541 424.818 244.887 422.785L276.582 363.307L282.372 369.302C276.989 390.189 264.706 426.118 262.181 431.435Z" fill="#36595C"/>
<path d="M262.181 431.435C254.23 429.142 247.541 424.818 244.887 422.785L276.582 363.307L282.372 369.302C276.989 390.189 264.706 426.118 262.181 431.435Z" stroke="#36595C"/>
</g>
<path d="M268.64 66.1431C250.839 59.9526 236.244 70.1871 224.594 71.1315C216.499 71.1315 215.303 61.6891 217.602 55.5584C221.071 46.307 220.688 45.6427 235.483 42.9741C247.667 40.7765 254.528 35.9571 261.249 32.9868C267.97 30.0164 279.959 27.0247 287.215 27.793C295.78 28.6999 307.351 36.5816 307.351 50.9667C307.351 58.5485 305.945 77.503 305.945 86.1971L304.596 138.238C303.548 175.893 305.209 230.177 304.981 283.184C304.664 356.978 303.259 427.937 308.643 444.898C320.208 481.327 339.675 494.626 355.288 507.925C367.778 518.565 389.548 521.79 398.222 523.524C388.328 524.488 360.338 524.27 332.737 504.071C298.235 478.821 285.899 446.247 279.732 433.911C274.797 424.042 268.669 351.508 269.119 332.555C269.478 219.733 263.45 185.172 264.411 147.335C265.402 108.293 273.306 67.7658 268.64 66.1431Z" fill="#81A8A3"/>
<g style="mix-blend-mode:darken" opacity="0.7">
<path d="M265.86 42.665C265.782 43.3673 269.959 46.1776 274.526 44.3042" stroke="#1A2B2C" stroke-width="2" stroke-linecap="round"/>
</g>
<path d="M222 69.5C226 72 238 64.5 251 63" stroke="#36595C" stroke-width="1.3" stroke-linecap="round"/>
<g style="mix-blend-mode:darken" opacity="0.3">
<path d="M355.13 329.497C351.551 315.974 343.994 298.077 340.414 283.758" stroke="#36595C" stroke-width="2" stroke-linecap="round"/>
</g>
<path opacity="0.3" d="M388.146 279.56C384.567 266.037 365.572 248.817 361.992 234.498" stroke="#36595C" stroke-width="2" stroke-linecap="round"/>
<path d="M122.766 528.362H434.463" stroke="#36595C" stroke-width="1.5" stroke-linecap="round"/>
<path d="M385.107 526.588C383.626 525.106 385.286 523.443 386.894 522.448C388.043 519.921 389.296 517.877 391.317 519.531C393.338 521.185 404.436 522.816 408.723 524.424C400.676 527.401 386.225 527.706 385.107 526.588Z" fill="#F0DA91"/>
<g style="mix-blend-mode:darken">
<path d="M220.85 54.9306C221.204 53.8883 223.099 50.6245 224.115 51.3016C225.131 51.9789 224.906 52.3818 224.867 53.2719C224.819 54.3845 223.149 54.6076 222.326 57.3166C221.698 59.3863 220.848 63.6432 219.963 62.1695C218.727 60.1105 220.382 56.3048 220.85 54.9306Z" fill="#36595C"/>
</g>
<path d="M292.818 33.2796C292.818 33.2796 309.165 1.53356 311.205 2.21391C313.245 2.89425 302.2 21.2256 297.897 38.2717C296.204 37.1737 292.818 34.6382 292.818 33.2796Z" fill="#F0DA91"/>
<path d="M292.818 33.2796C292.818 33.2796 309.165 1.53356 311.205 2.21391C313.245 2.89425 302.2 21.2256 297.897 38.2717" stroke="#36595C" stroke-linecap="round"/>
<path d="M269.838 397.933C265.002 470.469 285.371 503.923 294.149 525.09C294.821 526.711 293.177 528.287 291.544 527.645C285.466 525.257 274.552 521.423 269.838 522.627" stroke="#36595C" stroke-width="2" stroke-linecap="round"/>
<path d="M236.831 324.229L246.632 115.08C246.632 115.08 104.275 108.084 98.2066 109.959C95.8847 112.885 87.2757 313.716 88.4055 319.108C96.605 314.987 236.831 324.229 236.831 324.229Z" fill="#F3F3F3" stroke="#C7C7C7" stroke-width="1.5"/>
<path d="M246.525 332.942L256.326 123.793C256.326 123.793 113.968 116.797 107.9 118.672C105.578 121.598 96.969 322.429 98.0988 327.821C106.298 323.7 246.525 332.942 246.525 332.942Z" fill="#F3F3F3" stroke="#C7C7C7" stroke-width="1.5"/>
<path d="M256.257 342.372L266.058 133.223C266.058 133.223 123.701 126.226 117.632 128.102C115.311 131.028 106.701 331.858 107.831 337.25C116.031 333.129 256.257 342.372 256.257 342.372Z" fill="#F3F3F3" stroke="#C7C7C7" stroke-width="1.5"/>
<path d="M209.69 127.709C210.416 121.034 217.058 112.31 224.373 112.31C232.149 112.31 257.869 114.364 271.253 114.252C274.328 114.226 277.012 116.741 276.92 119.814L270.143 345.627C270.06 348.396 267.741 350.57 264.973 350.474L123.387 345.589C120.627 345.494 118.467 343.18 118.562 340.42L125.435 141.22C125.53 138.461 127.845 136.3 130.604 136.396L191.45 138.495C204.587 138.948 208.963 134.384 209.69 127.709Z" fill="#F0DA91"/>
<path d="M187.922 268.758L182.505 256.247M187.922 268.758L170.896 269.854M187.922 268.758L181.28 278.625M187.922 268.758L172.703 259.987M187.922 268.758C203.527 267.134 244.604 257.152 284.079 230.218" stroke="#36595C" stroke-width="2"/>
<path d="M215.064 591.245C213.624 591.245 212.331 590.871 211.184 590.125C210.064 589.378 209.171 588.311 208.504 586.925C207.837 585.511 207.504 583.831 207.504 581.885C207.504 579.725 207.864 577.898 208.584 576.405C209.331 574.911 210.317 573.778 211.544 573.005C212.771 572.231 214.117 571.845 215.584 571.845C216.277 571.845 216.957 571.965 217.624 572.205C218.317 572.418 218.984 572.778 219.624 573.285C220.264 573.765 220.864 574.431 221.424 575.285H221.824L221.504 576.285C220.544 575.138 219.624 574.311 218.744 573.805C217.864 573.298 216.891 573.045 215.824 573.045C214.704 573.045 213.651 573.351 212.664 573.965C211.677 574.578 210.891 575.538 210.304 576.845C209.717 578.151 209.424 579.805 209.424 581.805C209.424 583.645 209.691 585.178 210.224 586.405C210.757 587.631 211.477 588.551 212.384 589.165C213.317 589.778 214.357 590.085 215.504 590.085C216.651 590.085 217.691 589.805 218.624 589.245C219.584 588.658 220.517 587.738 221.424 586.485L221.784 587.565H221.384C220.824 588.391 220.211 589.085 219.544 589.645C218.877 590.178 218.171 590.578 217.424 590.845C216.677 591.111 215.891 591.245 215.064 591.245ZM221.144 591.005L221.104 587.405V587.325V575.525V575.285V562.725L217.744 562.525V561.765L222.544 560.925L222.984 561.205L222.864 567.565V589.725L226.304 590.005V590.765L221.144 591.005ZM230.298 590.765V590.005L234.258 589.605H234.738L239.058 590.005V590.765H230.298ZM233.458 590.765C233.511 590.151 233.538 589.351 233.538 588.365C233.565 587.351 233.578 586.311 233.578 585.245C233.605 584.151 233.618 583.191 233.618 582.365V580.525C233.618 579.671 233.605 578.885 233.578 578.165C233.578 577.418 233.565 576.698 233.538 576.005C233.538 575.311 233.525 574.631 233.498 573.965L230.138 573.765V573.045L234.898 572.005L235.258 572.285L235.378 577.645V577.685V582.365C235.378 583.191 235.378 584.151 235.378 585.245C235.405 586.311 235.418 587.351 235.418 588.365C235.445 589.351 235.471 590.151 235.498 590.765H233.458ZM235.258 579.205L234.818 577.645H235.258C235.631 576.471 236.138 575.458 236.778 574.605C237.445 573.725 238.178 573.045 238.978 572.565C239.805 572.085 240.645 571.845 241.498 571.845C242.138 571.845 242.685 571.965 243.138 572.205C243.618 572.418 243.938 572.711 244.098 573.085C244.071 573.591 243.911 573.978 243.618 574.245C243.351 574.485 242.991 574.605 242.538 574.605C242.165 574.605 241.805 574.511 241.458 574.325C241.138 574.138 240.791 573.898 240.418 573.605L239.578 572.885L241.098 572.845C239.871 573.085 238.751 573.738 237.738 574.805C236.751 575.845 235.925 577.311 235.258 579.205ZM252.089 591.245C250.702 591.245 249.555 590.858 248.649 590.085C247.742 589.311 247.289 588.178 247.289 586.685C247.289 585.831 247.475 585.058 247.849 584.365C248.222 583.645 248.835 583.005 249.689 582.445C250.569 581.885 251.715 581.378 253.129 580.925C253.769 580.711 254.422 580.511 255.089 580.325C255.755 580.138 256.435 579.965 257.129 579.805C257.822 579.618 258.515 579.445 259.209 579.285V580.045C258.222 580.285 257.222 580.551 256.209 580.845C255.222 581.138 254.302 581.445 253.449 581.765C252.382 582.138 251.529 582.578 250.889 583.085C250.275 583.565 249.822 584.085 249.529 584.645C249.262 585.178 249.129 585.751 249.129 586.365C249.129 587.511 249.462 588.391 250.129 589.005C250.795 589.591 251.662 589.885 252.729 589.885C253.369 589.885 253.982 589.778 254.569 589.565C255.182 589.325 255.835 588.938 256.529 588.405C257.249 587.871 258.075 587.125 259.009 586.165L259.169 587.565H258.489C257.742 588.418 257.035 589.125 256.369 589.685C255.702 590.218 255.022 590.605 254.329 590.845C253.662 591.111 252.915 591.245 252.089 591.245ZM261.249 591.205C260.315 591.205 259.609 590.898 259.129 590.285C258.649 589.645 258.395 588.751 258.369 587.605V587.485V578.125C258.369 576.738 258.209 575.658 257.889 574.885C257.569 574.111 257.089 573.565 256.449 573.245C255.835 572.925 255.049 572.765 254.089 572.765C253.342 572.765 252.635 572.885 251.969 573.125C251.329 573.338 250.649 573.685 249.929 574.165L251.009 573.205L250.249 576.245C250.142 576.618 249.982 576.898 249.769 577.085C249.582 577.271 249.315 577.365 248.969 577.365C248.649 577.365 248.395 577.271 248.209 577.085C248.022 576.898 247.902 576.631 247.849 576.285C248.249 574.818 249.049 573.711 250.249 572.965C251.449 572.218 252.849 571.845 254.449 571.845C255.729 571.845 256.782 572.058 257.609 572.485C258.462 572.885 259.089 573.538 259.489 574.445C259.915 575.325 260.129 576.458 260.129 577.845V587.325C260.129 588.365 260.262 589.085 260.529 589.485C260.822 589.885 261.235 590.085 261.769 590.085C262.089 590.085 262.382 590.018 262.649 589.885C262.915 589.751 263.195 589.538 263.489 589.245L263.929 589.725C263.635 590.178 263.249 590.538 262.769 590.805C262.289 591.071 261.782 591.205 261.249 591.205ZM275.91 591.245C274.257 591.245 272.79 590.871 271.51 590.125C270.257 589.378 269.27 588.298 268.55 586.885C267.83 585.445 267.47 583.711 267.47 581.685C267.47 579.578 267.884 577.791 268.71 576.325C269.564 574.858 270.644 573.751 271.95 573.005C273.284 572.231 274.697 571.845 276.19 571.845C277.204 571.845 278.124 572.018 278.95 572.365C279.804 572.711 280.524 573.231 281.11 573.925C281.724 574.591 282.164 575.391 282.43 576.325C282.377 576.671 282.257 576.925 282.07 577.085C281.884 577.245 281.63 577.325 281.31 577.325C280.937 577.325 280.644 577.231 280.43 577.045C280.217 576.858 280.07 576.578 279.99 576.205L279.03 572.965L280.23 574.245C279.537 573.685 278.87 573.298 278.23 573.085C277.617 572.871 276.937 572.765 276.19 572.765C274.91 572.765 273.75 573.125 272.71 573.845C271.697 574.538 270.884 575.538 270.27 576.845C269.684 578.151 269.39 579.685 269.39 581.445C269.39 583.125 269.67 584.605 270.23 585.885C270.817 587.138 271.63 588.111 272.67 588.805C273.71 589.498 274.91 589.845 276.27 589.845C277.017 589.845 277.724 589.751 278.39 589.565C279.084 589.378 279.737 589.085 280.35 588.685C280.964 588.285 281.524 587.791 282.03 587.205L282.51 587.605C282.03 588.378 281.457 589.045 280.79 589.605C280.124 590.138 279.39 590.538 278.59 590.805C277.79 591.098 276.897 591.245 275.91 591.245ZM295.586 591.245C294.199 591.245 292.866 590.911 291.586 590.245C290.306 589.551 289.253 588.498 288.426 587.085C287.626 585.645 287.226 583.831 287.226 581.645C287.226 579.458 287.626 577.645 288.426 576.205C289.253 574.738 290.306 573.645 291.586 572.925C292.866 572.205 294.199 571.845 295.586 571.845C296.999 571.845 298.346 572.191 299.626 572.885C300.906 573.578 301.946 574.645 302.746 576.085C303.573 577.525 303.986 579.338 303.986 581.525C303.986 583.711 303.573 585.525 302.746 586.965C301.946 588.405 300.906 589.485 299.626 590.205C298.346 590.898 296.999 591.245 295.586 591.245ZM295.586 590.365C296.866 590.365 297.986 590.031 298.946 589.365C299.906 588.671 300.653 587.671 301.186 586.365C301.746 585.031 302.026 583.418 302.026 581.525C302.026 579.631 301.746 578.031 301.186 576.725C300.653 575.418 299.906 574.431 298.946 573.765C297.986 573.098 296.866 572.765 295.586 572.765C294.359 572.765 293.253 573.111 292.266 573.805C291.306 574.471 290.546 575.471 289.986 576.805C289.453 578.138 289.186 579.751 289.186 581.645C289.186 583.538 289.453 585.138 289.986 586.445C290.546 587.725 291.306 588.698 292.266 589.365C293.253 590.031 294.359 590.365 295.586 590.365ZM308.614 590.765V590.005L312.534 589.605H313.014L316.774 590.005V590.765H308.614ZM311.774 590.765C311.827 590.151 311.854 589.351 311.854 588.365C311.88 587.351 311.894 586.311 311.894 585.245C311.92 584.151 311.934 583.191 311.934 582.365V580.525C311.934 579.671 311.92 578.885 311.894 578.165C311.894 577.418 311.88 576.698 311.854 576.005C311.854 575.311 311.84 574.631 311.814 573.965L308.454 573.765V573.045L313.214 572.005L313.574 572.285L313.694 576.445V576.485V582.365C313.694 583.191 313.694 584.151 313.694 585.245C313.72 586.311 313.734 587.351 313.734 588.365C313.76 589.351 313.787 590.151 313.814 590.765H311.774ZM320.734 590.765V590.005L324.654 589.605H325.134L328.814 590.005V590.765H320.734ZM323.894 590.765C323.92 590.151 323.934 589.351 323.934 588.365C323.96 587.378 323.974 586.351 323.974 585.285C324 584.191 324.014 583.218 324.014 582.365V578.525C324.014 576.578 323.694 575.218 323.054 574.445C322.44 573.671 321.534 573.285 320.334 573.285C319.774 573.285 319.12 573.391 318.374 573.605C317.654 573.818 316.867 574.218 316.014 574.805C315.187 575.365 314.307 576.165 313.374 577.205L313.054 576.405H313.294C314.12 575.365 314.96 574.511 315.814 573.845C316.694 573.178 317.574 572.685 318.454 572.365C319.334 572.018 320.187 571.845 321.014 571.845C322.56 571.845 323.747 572.338 324.574 573.325C325.4 574.311 325.814 576.031 325.814 578.485V582.365C325.814 583.218 325.814 584.191 325.814 585.285C325.84 586.351 325.854 587.378 325.854 588.365C325.88 589.351 325.907 590.151 325.934 590.765H323.894Z" fill="#1A2B2C"/>
</svg>
